<svg width="480" height="400" viewBox="0 0 480 400" fill="none" xmlns="http://www.w3.org/2000/svg">
<rect x="0.5" y="0.5" width="319" height="63" rx="3.5" fill="white" stroke="#D8D8D8"/>
<rect x="16" y="16" width="256" height="8" rx="4" fill="#E9E9E9"/>
<rect x="16" y="40" width="288" height="8" rx="4" fill="#E9E9E9"/>
<rect x="0.5" y="224.5" width="319" height="63" rx="3.5" fill="white" stroke="#D8D8D8"/>
<rect x="16" y="240" width="176" height="8" rx="4" fill="#E9E9E9"/>
<rect x="16" y="264" width="288" height="8" rx="4" fill="#E9E9E9"/>
<rect x="160.5" y="112.5" width="319" height="63" rx="7.5" fill="white" stroke="#1753DE"/>
<rect x="176" y="128" width="288" height="8" rx="4" fill="#E9E9E9"/>
<rect x="176" y="152" width="239" height="8" rx="4" fill="#E9E9E9"/>
<rect x="160.5" y="336.5" width="319" height="63" rx="3.5" fill="white" stroke="#1753DE"/>
<rect x="176" y="352" width="232" height="8" rx="4" fill="#E9E9E9"/>
<rect x="176" y="376" width="288" height="8" rx="4" fill="#E9E9E9"/>
</svg>
