<svg width="90" height="30" viewBox="0 0 90 30" fill="none" xmlns="http://www.w3.org/2000/svg">
<path fill-rule="evenodd" clip-rule="evenodd" d="M55.9434 18.624C54.8328 17.9757 53.6403 17.4796 52.3976 17.1488C50.9859 16.7489 49.5935 16.2835 48.2251 15.754C46.826 15.208 45.6016 14.2922 44.6826 13.1044C43.7071 11.8736 43.2182 10.3148 43.2161 8.42999C43.2161 6.10201 44.1503 4.11513 46.0166 2.47045C47.884 0.825763 50.3065 0.00233114 53.2841 0.000158507C54.4333 -0.0053035 55.5789 0.130416 56.6951 0.404269C57.6293 0.619363 58.5353 0.942 59.3946 1.36784C60.0355 1.69808 60.6536 2.07394 61.2413 2.49C61.6596 2.77244 62.0398 3.10703 62.3744 3.48398L62.735 3.88701L59.0502 7.80644C58.8378 7.56542 58.6138 7.33485 58.3789 7.11554C58.091 6.84071 57.487 6.4757 56.5647 6.02054C55.6772 5.57598 54.6982 5.34462 53.7056 5.34485C52.5291 5.34485 51.5829 5.64576 50.867 6.24866C50.5326 6.50671 50.2618 6.83803 50.0756 7.21715C49.8893 7.59625 49.7925 8.01303 49.7926 8.43542C49.7926 9.3979 50.2782 10.1703 51.2483 10.7515C52.3578 11.3928 53.5451 11.889 54.781 12.2278C56.165 12.6308 57.5555 13.1012 58.9536 13.6389C60.3606 14.1802 61.5927 15.0961 62.5167 16.2873C63.4933 17.5192 63.981 19.077 63.981 20.9629C63.981 23.6243 63.0142 25.7992 61.0827 27.484C59.1491 29.17 56.4833 30.0086 53.0831 29.9999C51.7732 30.0035 50.4683 29.8385 49.2006 29.5089C48.1256 29.246 47.088 28.849 46.1122 28.327C45.3688 27.9152 44.6548 27.4524 43.9754 26.942C43.493 26.5952 43.0488 26.1983 42.6501 25.7579L42.1884 25.2571L45.9025 21.5658C46.0894 21.7809 46.3534 22.0579 46.6945 22.3979C47.0356 22.7379 47.7949 23.1963 48.9725 23.7732C50.1199 24.3415 51.3832 24.6367 52.6638 24.6357C54.1412 24.6357 55.3035 24.2881 56.1454 23.5918C56.5444 23.2766 56.8652 22.8735 57.0827 22.4139C57.3002 21.9542 57.4085 21.4506 57.399 20.9422C57.399 19.9841 56.9145 19.2117 55.9434 18.624ZM90 29.469V23.9124V23.9103H74.6007V17.5097H86.3372V11.9543H74.6007V6.17611H90V0.600037H68.4V29.469H90ZM7.38707 0.600037H0L10.7882 29.469H10.8H18.0873H18.2613L25.1629 10.8073L21.3622 0.600037L14.42 19.5748L7.38707 0.600037ZM30.893 0.600037H37.0948V29.469H30.893V0.600037Z" fill="black"/>
</svg>
